inDegrees=yes
name=ik_coleta1_mov
DataType=double
version=3
OpenSimVersion=4.4-2022-07-23-0e9fedc
endheader
time	q1	q2
7.407099008560181	32.44279733582837	-30.44755214185288
7.413087844848633	33.49079741307654	-31.49555218672235
7.428073883056641	34.76704414436577	-32.77179892158014
7.438093900680542	34.76704411327931	-28.05235313262237
7.447090864181518	34.76704414303632	-27.06772157720325
7.455089092254639	36.83031117072696	-29.13098864633436
7.464070081710815	42.5889433688742	-34.88962169649019
7.476102113723755	42.58894288250843	-34.37641466802004
7.480093002319336	41.6122252705891	-33.39969705166995
7.490108966827393	41.61222527230351	-32.60193298121366
7.497091054916382	41.61222527288069	-32.11399173521104
7.506097078323364	40.06782068210785	-30.56958712517406
7.510092973709106	40.06782069258106	-30.42170756782818
7.515090942382812	38.94599542634701	-29.29988229418119
7.520097970962524	38.94599543059849	-29.20942959353332
7.524089097976685	35.56298163867881	-25.82641559930307
7.529093027114868	35.56298176021436	-25.71635960269057
7.538091897964478	33.14147213680686	-23.29484990696933
7.548095941543579	31.48970688060218	-21.64308470012326
7.554090023040771	31.48970689278419	-22.08271246826017
7.55807900428772	28.7020955467502	-19.29510101904468
7.563075065612793	28.70209559407408	-19.52034135723985
7.56908106803894	27.77631469958223	-18.59456045903448
7.573094129562378	27.77631470160208	-19.26924729598221
7.577090978622437	26.33383133968566	-17.82676392052844
7.58208703994751	26.33383134640687	-18.59947956106606
7.592083930969238	19.74072950941967	-12.0063764991087
7.602102041244507	19.7407299822996	-12.47358530749603
7.609087944030762	19.74072998244255	-13.10966941078846
7.620093822479248	19.74072998264315	-13.89017810846464
7.625098943710327	17.39913261586123	-11.54858069207427
7.632095813751221	17.39913263940744	-12.97398093402536
7.640082836151123	17.39913328446107	-21.91188813677095
7.645095109939575	15.10878792950718	-19.62154268715974
7.649088859558105	15.10878799447535	-23.28012490865422
7.654092073440552	11.75116440168337	-19.92250128076646
7.662088871002197	11.75116448150771	-22.44175503790395
7.670083045959473	11.75116447274481	-24.33166937592461
7.674093008041382	9.623990497781397	-22.20449539773337
7.678093910217285	9.623990516294814	-23.42783838991119
7.685091018676758	9.62399051479254	-24.07830486735774
7.694087743759155	8.550246582680495	-23.0045609349122
7.69808292388916	8.550246586373682	-24.04331758069534
7.707082986831665	8.550246585548116	-24.76231651027949
7.711085081100464	7.643551215024273	-23.85562113956972
7.715081930160522	7.643551217243981	-24.61644977546194
7.722091913223267	6.796019850740438	-23.76891840880781
7.728080034255981	6.796019852937	-24.55778615871155
7.734091997146606	5.242976911716465	-23.0047432166078
7.740084886550903	3.007479932492923	-20.76924623564898
7.745087862014771	1.750180658775043	-19.51194696407715
7.751095056533813	1.750180668058764	-20.27947026714511
7.756091117858887	1.750180668990655	-21.22945582932785
7.761091947555542	1.10864193839294	-20.58791709865601
7.771079063415527	1.108641941518862	-21.52397147102274
7.775071859359741	-0.3364611782567412	-20.07886835053462
7.779086112976074	-0.3364611613725968	-21.07358508770917
7.784093141555786	-1.26589680722044	-20.14414944165442
7.8090980052948	-2.195604349606459	-19.21444189926821
7.814087152481079	-2.479858977608834	-18.93018727145131
7.820084810256958	-2.709618029902747	-18.70042821915996
7.825086832046509	-2.709618026737734	-19.76085860333478
7.830090999603271	-2.891802077248596	-19.57867455280226
7.83709192276001	-2.891802073433046	-20.71817249430926
7.848088979721069	-2.891802062724361	-22.50059385035623
7.857090950012207	-2.891802071674717	-23.79454445474482
7.866091966629028	-2.998785370999002	-23.68756115537913
7.871068000793457	-2.998785331538009	-26.18832237460527
7.884092092514038	-2.998785366401489	-27.4092954406217
7.905087947845459	-2.998785368011398	-28.46663102937897
7.913089990615845	-2.998785368101376	-29.51322864260593
7.922089815139771	-2.998785168537218	-33.82665568684387
7.986108779907227	-2.998785369444553	-34.67660890032507
8.006093978881836	-2.998785360233589	-36.29838840793906
8.024084806442261	-2.99878537003666	-37.02226209589359
8.03009295463562	-2.998785370367377	-37.65070621831713
8.036088943481445	-2.998785370484834	-38.23710196190827
8.055085897445679	-2.998785368137059	-39.27942232761461
8.060093879699707	-3.044169546324972	-39.23403814936615
8.064095973968506	-3.044169546260504	-39.52942303479896
8.069108009338379	-3.008756789883772	-39.56483579117427
8.07408595085144	-3.008756789854917	-39.79278274473559
8.078089952468872	-2.875860904623389	-39.9256786299683
8.084092140197754	-2.875860904965065	-39.40958260320951
8.096104860305786	-2.87586090727148	-38.37919426821395
8.103089094161987	-2.875860908922686	-37.16757447751293
8.108098983764648	-2.126187692358458	-37.91724769438464
8.112083911895752	-2.126187705686001	-36.16554285386196
8.118087768554688	-1.620235069817105	-36.67149549001729
8.124096870422363	-1.078834812973716	-37.21289574687741
8.128093004226685	-1.078834816279536	-36.05349873620018
8.134090900421143	-0.455110764226683	-36.67722278844894
8.141093969345093	-0.4551107671181263	-35.56200000920145
8.147098064422607	1.871432050654275	-37.88854283381857
8.151093006134033	1.871432024909234	-36.23769693847937
8.156100988388062	15.7427951786254	-50.10906142306326
8.160084009170532	15.74279359408452	-47.71015600410208
8.164083957672119	16.93972501334925	-48.90708742479885
8.168093919754028	16.9397250069044	-46.5185564944419
8.172087907791138	18.13299999445659	-47.71183148363887
8.181122064590454	22.209703735568	-51.78853526586501
8.188074827194214	22.20970366451193	-49.46500192199565
8.194095134735107	24.74835935121964	-52.00365762124827
8.206090927124023	27.67841444052189	-54.93371271695538
8.213086843490601	30.25221660788908	-57.50751487842098
8.227090120315552	32.40099815654221	-59.65629642188305
8.234088897705078	34.55875840083823	-61.81405666626981
8.24008584022522	34.55875838189004	-58.65046135635586
8.246090888977051	36.47728643284739	-60.56898941655727
8.251091957092285	36.47728641565482	-57.59444189948565
8.256089925765991	38.22480896317135	-59.34196445678597
8.261090993881226	38.22480886890811	-53.755308940624
8.266093969345093	39.85353283656991	-55.38403294591665
8.270086050033569	39.85353282796343	-53.44069241448148
8.27508282661438	41.43368763570244	-55.02084723392929
8.27907919883728	41.43368762892526	-53.48525337131551
8.284073829650879	42.84194472825548	-54.89351047922526
8.288074970245361	42.84194471867787	-52.85270909266423
8.294084072113037	44.16817117329754	-54.17893555605819
8.299086093902588	44.16817116809055	-52.84799319988892
8.310087919235229	44.85589363993431	-53.53571567325088
8.324092149734497	45.09843672172867	-53.77825875407473
8.328083992004395	45.09843672009829	-52.55518246136666
8.333092927932739	45.01316392257127	-52.46990966423888
8.337084054946899	45.01316337610708	-43.99601973911656
8.342082977294922	44.81700446583876	-43.79986098451277
8.346081972122192	44.81700446380201	-42.48882988858669
8.352083921432495	44.4615245043677	-42.13334992956445
8.376092195510864	44.46152450292243	-40.95255895483702
8.432139873504639	43.93184460127068	-40.42287905304624
8.451107025146484	43.32790202943335	-39.81893648093558
8.460085868835449	42.64307022693256	-39.13410467804995
8.470073938369751	41.94946207368093	-38.44049652475065
8.474086046218872	41.94946206666556	-36.47139122771287
8.484082937240601	39.84670780735303	-34.36863693282984
8.496093034744263	39.84670782297182	-33.24505033062049
8.506085157394409	38.88212807150025	-32.2804705758678
8.514087915420532	37.7934626168555	-31.19180511961424
8.520080089569092	36.54893445269963	-29.94727695284829
8.540084838867188	22.48783795100714	-15.88616905723333
8.547088146209717	21.42441584516737	-14.82275834828367
8.552084922790527	21.42441584683558	-14.27593311414892
8.558086156845093	20.28627459806339	-13.13779185925065
8.563086986541748	20.28627460021585	-12.64489275273663
8.570084095001221	20.28627459906675	-11.50910402022121
8.575093984603882	20.28627460028776	-11.18035558658548
8.583086967468262	19.04215332421876	-9.936234301704673
8.587088108062744	19.04215332724796	-9.801739945944421
8.595077991485596	19.04215332724941	-9.709793407946467
8.603090763092041	11.83514695806965	-2.502785366013615
8.608091115951538	11.83514740293234	-6.417270873675592
8.617087841033936	11.83514892663073	-20.10858074776195
8.62208890914917	9.599250132945913	-17.87268179724274
8.638098955154419	9.59925030099444	-23.7569425293046
8.642091989517212	8.525729687513483	-22.68342191165395
8.646085977554321	8.525729689761873	-23.36834475095564
8.653084993362427	7.545893192984173	-22.38850825394277
8.66408109664917	6.626286643805481	-21.4689017048039
8.682089805603027	6.626286645955237	-22.23313495488911
8.694089889526367	6.626286645930767	-22.98517051577915
8.704087972640991	5.178276924708019	-21.53716079397421
8.720124006271362	5.178276933077147	-22.33662403740628
8.726086139678955	4.287947582243197	-21.44629468644914
8.733099937438965	4.287947585271841	-22.29919940159138
8.773088932037354	4.287947587984918	-23.62221942473279
8.779088020324707	2.015344114886501	-21.34961595026753
8.788084983825684	0.5205716431501297	-19.85484347949511
8.793087959289551	-0.5106600539868291	-18.82361178261612
8.797100067138672	-0.5106600440858812	-19.78410962211759
8.8021240234375	-1.367070790187827	-18.92769887594673
8.858114957809448	-1.367070759356155	-20.84607711934935
8.867081880569458	-1.367070782393554	-21.82473791086833
8.876086950302124	-1.367070691827831	-24.74900678428198
8.881071090698242	-1.898499867589526	-24.21757760839391
8.886098146438599	-1.898499863204757	-25.17379683969941
8.898090839385986	-2.206817067261907	-24.86547963563613
8.905077934265137	-2.206816900807722	-28.3924023904858
8.909115076065063	-2.863749467484237	-27.73546982351361
8.915099143981934	-2.863749409113852	-30.39035280281712
8.92308497428894	-2.863749431862526	-32.62910649566737
8.932080030441284	-2.863749450557374	-34.34628938478276
8.937102079391479	-3.13002224388226	-34.08001659137987
8.943079948425293	-3.130021908798505	-39.17692451324882
8.953088045120239	-3.130022243606945	-39.59822817695256
8.962085962295532	-3.1300222436978	-39.9369495935072
8.974086046218872	-3.130022243757167	-40.18571923775711
8.997089862823486	-3.130022243766513	-40.41276700534799
9.007099151611328	-3.130022243795875	-40.45777235269939
9.017094135284424	-3.130022243796368	-40.41105949139765
9.030086040496826	-3.130022243803978	-40.26511208949238
9.03910493850708	-3.13002224382273	-40.04594542470801
9.046087980270386	-3.130022243895392	-39.70611409353734
9.060100078582764	-2.174393552730613	-40.66174278506053
9.085091114044189	-2.174393555368364	-40.20813666537321
9.090095043182373	-2.174393555573729	-39.60167683857615
9.105085849761963	-2.174393613193007	-36.28095514750522
9.115096092224121	-2.174393614706732	-32.93153375982399
9.119107007980347	-1.824770883082097	-33.28115649274981
9.131083011627197	-1.824770933117387	-30.04946877628335
9.139091968536377	-1.824771194772785	-24.09927645790011
9.149084091186523	-1.398904563350888	-24.52514310650603
9.154094934463501	-0.9470239462248921	-24.97702372364974
9.159083843231201	4.327839705083426	-30.2518875475542
9.164085865020752	4.327839487106602	-26.99172882835089
9.17409610748291	4.327839489329827	-23.83035131034462
9.183079957962036	6.131735451487948	-25.63424728999188
9.189084053039551	6.131735317160574	-19.48606846547654
9.204074859619141	7.549988911461403	-20.90432211228135
9.210114002227783	7.54998890754574	-19.29525427543918
9.214060068130493	9.222223012413339	-20.96748839444441
9.218068838119507	9.222223010251597	-19.55319409320544
9.233119010925293	9.222223010157748	-18.0624022588246
9.237140893936157	29.53922108387625	-38.37942519969452
9.247093915939331	45.67809925870133	-54.51829095570673
9.257115125656128	47.03916426819152	-55.8793435249878
9.268086910247803	47.03916421801565	-52.36125877129433
9.274080038070679	47.03916426141168	-51.1087601680162
